<svg xmlns="http://www.w3.org/2000/svg" width="64" height="62" viewBox="0 0 64 62">
  <defs>
    <style>
      .cls-1 {
        fill: #ec4848;
        fill-rule: evenodd;
      }
    </style>
  </defs>
  <path id="USER_ADD" data-name="USER / ADD" class="cls-1" d="M832,2444.99V2445a3,3,0,0,1-3,3h-1.832a4.043,4.043,0,0,1,4.736-4.48c0.093,0.91.1,1.47,0.1,1.47h0Zm-4-2.99h-3v3a3,3,0,0,1-6,0v-3h-3a3,3,0,0,1,0-6h3v-3a3,3,0,0,1,6,0v3h3A3,3,0,0,1,828,2442Zm-12-9a28.107,28.107,0,0,0,.832,15H771a3,3,0,0,1-3-3v-0.01h0s0-10.93,7.988-14.91c5.054-2.51,3.108-.47,9.314-3.04a70.952,70.952,0,0,0,7.675-3.47l0.058-5.92s-2.324-1.78-3.046-7.35c-1.455.42-1.935-1.71-2.02-3.07-0.078-1.3-.842-5.39.932-5.02a36.26,36.26,0,0,1-.5-6.5c0.445-4.57,4.853-9.35,11.643-9.7,7.987,0.35,11.151,5.12,11.6,9.7a36.479,36.479,0,0,1-.519,6.49c1.775-.36,1,3.72.917,5.03-0.079,1.35-.57,3.47-2.02,3.05-0.725,5.58-3.049,7.34-3.049,7.34l0.054,5.89s1.47,0.84,7.675,3.41a29.791,29.791,0,0,0,3.689,1.32A5.956,5.956,0,0,0,816,2433Z" transform="translate(-768 -2386)"/>
</svg>
