<svg xmlns="http://www.w3.org/2000/svg" width="46.406" height="39.41" viewBox="0 0 46.406 39.41">
  <defs>
    <style>
      .cls-1 {
        fill: #fff;
        fill-rule: evenodd;
      }
    </style>
  </defs>
  <path id="BASKET_ADD" data-name="BASKET / ADD" class="cls-1" d="M935.574,3185.4a9.485,9.485,0,1,1,9.426-9.48A9.45,9.45,0,0,1,935.574,3185.4Zm4.351-11.67h-2.176v-2.19a2.175,2.175,0,1,0-4.35,0v2.19h-2.175a2.19,2.19,0,0,0,0,4.38H933.4v2.18a2.175,2.175,0,1,0,4.35,0v-2.18h2.176A2.19,2.19,0,0,0,939.925,3173.73Zm-13.26-5.29-2.414-4.59h0.009a2.179,2.179,0,0,1,1.889-3.26,2.167,2.167,0,0,1,1.939,1.22l0.008-.01,2.007,3.82A11.611,11.611,0,0,0,926.665,3168.44Zm-7.315-4.59-4.81,9.15h-4.923l5.888-11.2,0,0.01a2.165,2.165,0,0,1,4.113.97,2.2,2.2,0,0,1-.286,1.07h0.013Zm-2.99,11.34h7.65c-0.015.24-.037,0.48-0.037,0.73a11.67,11.67,0,0,0,4.351,9.1v8.41a2.175,2.175,0,1,0,4.35,0v-6.22a11.562,11.562,0,0,0,2.9.38,11.322,11.322,0,0,0,3.461-.53l-2.8,11.28h-0.006a2.176,2.176,0,0,1-2.1,1.66H909.472a2.177,2.177,0,0,1-2.1-1.66h-0.006l-4.663-18.78h-1.927a2.185,2.185,0,0,1,0-4.37H916.36Zm3.263,18.24a2.175,2.175,0,1,0,4.35,0v-11.68a2.175,2.175,0,1,0-4.35,0v11.68Zm-4.35-11.68a2.176,2.176,0,1,0-4.351,0v11.68a2.176,2.176,0,1,0,4.351,0v-11.68Z" transform="translate(-898.594 -3160.59)"/>
</svg>
