<svg xmlns="http://www.w3.org/2000/svg" width="41.688" height="35.47" viewBox="0 0 41.688 35.47">
  <defs>
    <style>
      .cls-1 {
        fill: #fff;
        fill-rule: evenodd;
      }
    </style>
  </defs>
  <path id="CLOUD_DOWNLOAD" data-name="CLOUD / DOWNLOAD" class="cls-1" d="M350.915,3037.95a1.935,1.935,0,1,1,0-3.87,5.834,5.834,0,0,0,5.862-5.8,5.756,5.756,0,0,0-1.978-4.34,3.885,3.885,0,0,0-.389-0.31,0.048,0.048,0,0,0-.027-0.02c-0.126-.1-0.257-0.18-0.391-0.27l-0.062-.03a3.13,3.13,0,0,0-.384-0.21l-0.108-.06c-0.12-.05-0.242-0.11-0.366-0.16l-0.164-.06c-0.111-.04-0.223-0.08-0.338-0.11l-0.23-.06c-0.1-.02-0.2-0.05-0.3-0.07s-0.214-.03-0.321-0.05l-0.232-.03a5.46,5.46,0,0,0-.574-0.03c-0.062,0-.121.01-0.182,0.01-0.059-.33-0.134-0.65-0.222-0.97-0.022-.08-0.051-0.16-0.075-0.23-0.073-.24-0.148-0.49-0.237-0.72-0.026-.07-0.059-0.14-0.088-0.21-0.1-.24-0.195-0.47-0.308-0.7-0.027-.06-0.058-0.11-0.086-0.17-0.123-.24-0.25-0.47-0.39-0.7a11.094,11.094,0,0,0-18.97,0c-0.139.23-.267,0.46-0.389,0.7-0.028.06-.06,0.11-0.087,0.17-0.112.23-.212,0.46-0.308,0.7-0.028.07-.061,0.14-0.088,0.21-0.089.23-.164,0.48-0.237,0.72-0.023.07-.053,0.15-0.074,0.23-0.089.32-.164,0.64-0.223,0.97-0.061,0-.12-0.01-0.181-0.01a5.465,5.465,0,0,0-.575.03l-0.232.03c-0.107.02-.215,0.03-0.321,0.05s-0.2.05-.3,0.07l-0.231.06c-0.114.03-.226,0.07-0.338,0.11l-0.164.06c-0.124.05-.246,0.11-0.366,0.16l-0.108.06a3.046,3.046,0,0,0-.383.21l-0.063.03c-0.134.09-.265,0.17-0.391,0.27a0.043,0.043,0,0,0-.026.02,3.885,3.885,0,0,0-.389.31,5.753,5.753,0,0,0-1.978,4.34,5.833,5.833,0,0,0,5.862,5.8,1.935,1.935,0,1,1,0,3.87,9.66,9.66,0,0,1-2.857-18.92,14.991,14.991,0,0,1,27.859,0A9.66,9.66,0,0,1,350.915,3037.95Zm-16.935-3.22a1.955,1.955,0,0,1,1.447.64h0.006l2.455,2.7v-9.79a1.954,1.954,0,0,1,3.908,0v9.79l2.456-2.7h0a1.955,1.955,0,0,1,3.4,1.29,1.9,1.9,0,0,1-.507,1.29h0l-5.862,6.45h0a1.956,1.956,0,0,1-2.894,0h0l-5.862-6.45h0a1.9,1.9,0,0,1-.507-1.29A1.94,1.94,0,0,1,333.98,3034.73Z" transform="translate(-319 -3009.56)"/>
</svg>
