<svg xmlns="http://www.w3.org/2000/svg" width="87.406" height="87.38" viewBox="0 0 87.406 87.38">
  <defs>
    <style>
      .cls-1 {
        fill: #fff;
        fill-rule: evenodd;
      }
    </style>
  </defs>
  <path id="COG" class="cls-1" d="M441.823,1810.47a32.865,32.865,0,0,1-3.164,7.54c0.2,0.25,7.275,9.14,2.926,13.49l-2.168,2.17c-3.258,3.26-11.42-1.85-13.368-3.15a32.715,32.715,0,0,1-7.992,3.2l0.572,0.02s-1.547,11.63-7.784,11.63h-2.14c-4.755,0-7.4-9.96-7.862-11.84a33.444,33.444,0,0,1-7.886-3.37l0.429,0.45s-9.215,7.24-13.625,2.84l-1.95-1.63c-3.351-3.35,2.05-12.22,3.131-13.92a32.908,32.908,0,0,1-3.08-7.36c-1.832-.44-11.871-3.09-11.871-7.86v-2.14c0-5.51,9.573-7.35,11.815-7.71a32.991,32.991,0,0,1,3.061-7.42c-1.028-1.56-6.647-10.48-3.266-13.86l2.06-1.73c3.88-3.88,11.831,1.62,13.687,2.99a33.131,33.131,0,0,1,7.542-3.17c0.589-2.33,3.224-11.65,7.815-11.65h2.14c5.347,0,7.242,9.01,7.675,11.59a32.914,32.914,0,0,1,7.65,3.15c2.016-1.31,10.316-6.38,13.566-3.13l1.95,2.05c3.8,3.8-1.472,11.5-3,13.56a32.9,32.9,0,0,1,3.155,7.56c0.681,0.09,11.573,1.73,11.573,7.77v2.14C453.41,1807.23,444.255,1809.85,441.823,1810.47Zm-32.11-33.35a24.575,24.575,0,1,0,24.588,24.57A24.579,24.579,0,0,0,409.713,1777.12Zm0,40.96a16.385,16.385,0,1,1,16.392-16.39A16.392,16.392,0,0,1,409.713,1818.08Zm0-24.58a8.2,8.2,0,1,0,8.2,8.19A8.195,8.195,0,0,0,409.713,1793.5Z" transform="translate(-366 -1758)"/>
</svg>
