<svg xmlns="http://www.w3.org/2000/svg" width="52" height="52" viewBox="0 0 52 52">
  <defs>
    <style>
      .cls-1 {
        fill: #fff;
        fill-rule: evenodd;
      }
    </style>
  </defs>
  <path id="REPEAT_2" data-name="REPEAT 2" class="cls-1" d="M967.562,3986.69H957a2.44,2.44,0,0,1,0-4.88h4.2A21.086,21.086,0,0,0,922.875,3994a2.438,2.438,0,1,1-4.875,0h0a25.973,25.973,0,0,1,47.125-15.1v-4.4a2.438,2.438,0,1,1,4.875,0v9.75A2.437,2.437,0,0,1,967.562,3986.69Zm-47.125,14.62H931a2.44,2.44,0,0,1,0,4.88h-4.231A21.113,21.113,0,0,0,965.125,3994a2.438,2.438,0,1,1,4.875,0h0a25.959,25.959,0,0,1-47.125,15.07v4.43a2.438,2.438,0,1,1-4.875,0v-9.75A2.437,2.437,0,0,1,920.437,4001.31Z" transform="translate(-918 -3968)"/>
</svg>
