<svg xmlns="http://www.w3.org/2000/svg" width="43.282" height="39.41" viewBox="0 0 43.282 39.41">
  <defs>
    <style>
      .cls-1 {
        fill: #fff;
        fill-rule: evenodd;
      }
    </style>
  </defs>
  <path id="SHOP" class="cls-1" d="M943.427,3023.31a5.407,5.407,0,1,1-10.814,0h0a5.408,5.408,0,1,1-10.815,0h0a5.407,5.407,0,1,1-10.814,0h0a5.408,5.408,0,1,1-10.815,0h0l3.8-10.2h35.654l3.8,10.2h0Zm-6.759-12.23h-29.74a2.04,2.04,0,0,1,0-4.08h29.74A2.04,2.04,0,0,1,936.668,3011.08Zm-30.416,19.67h0c0.2-.02.385-0.05,0.575-0.08,0.041-.01.083-0.01,0.123-0.02l0.259-.06a7.725,7.725,0,0,0,1.071-.33h0v10.03h27.036v-10.03h0a7.754,7.754,0,0,0,1.07.33l0.26,0.06c0.041,0.01.082,0.01,0.123,0.02,0.19,0.03.381,0.06,0.575,0.08h0c0.222,0.02.448,0.03,0.676,0.03a7.509,7.509,0,0,0,1.351-.13v13.72a2.037,2.037,0,0,1-2.027,2.04H906.252a2.038,2.038,0,0,1-2.027-2.04v-13.72a7.52,7.52,0,0,0,1.352.13Q905.919,3030.78,906.252,3030.75Z" transform="translate(-900.156 -3007)"/>
</svg>
